<?xml version="1.0" encoding="UTF-8" standalone="no"?>
<!-- Created with Inkscape (http://www.inkscape.org/) -->

<svg
   xmlns:dc="http://purl.org/dc/elements/1.1/"
   xmlns:cc="http://creativecommons.org/ns#"
   xmlns:rdf="http://www.w3.org/1999/02/22-rdf-syntax-ns#"
   xmlns:svg="http://www.w3.org/2000/svg"
   xmlns="http://www.w3.org/2000/svg"
   xmlns:sodipodi="http://sodipodi.sourceforge.net/DTD/sodipodi-0.dtd"
   xmlns:inkscape="http://www.inkscape.org/namespaces/inkscape"
   width="48"
   height="48"
   id="svg2"
   version="1.1"
   inkscape:version="0.48.2 r9819"
   sodipodi:docname="Новый документ 1">
  <defs
     id="defs4" />
  <sodipodi:namedview
     id="base"
     pagecolor="#ffffff"
     bordercolor="#666666"
     borderopacity="1.0"
     inkscape:pageopacity="0.0"
     inkscape:pageshadow="2"
     inkscape:zoom="12.041667"
     inkscape:cx="15.615387"
     inkscape:cy="27.699947"
     inkscape:document-units="px"
     inkscape:current-layer="layer1"
     showgrid="true"
     inkscape:window-width="1276"
     inkscape:window-height="777"
     inkscape:window-x="0"
     inkscape:window-y="19"
     inkscape:window-maximized="1">
    <inkscape:grid
       type="xygrid"
       id="grid2985"
       empspacing="5"
       visible="true"
       enabled="true"
       snapvisiblegridlinesonly="true" />
  </sodipodi:namedview>
  <metadata
     id="metadata7">
    <rdf:RDF>
      <cc:Work
         rdf:about="">
        <dc:format>image/svg+xml</dc:format>
        <dc:type
           rdf:resource="http://purl.org/dc/dcmitype/StillImage" />
        <dc:title></dc:title>
      </cc:Work>
    </rdf:RDF>
  </metadata>
  <g
     inkscape:label="Layer 1"
     inkscape:groupmode="layer"
     id="layer1"
     transform="translate(0,-1004.3622)">
    <g
       transform="matrix(0,-2.0632056,2.0523804,0,-36.233036,1078.5278)"
       style="font-size:40px;font-style:normal;font-variant:normal;font-stretch:normal;text-align:center;line-height:125%;letter-spacing:0px;word-spacing:0px;text-anchor:middle;fill:#066192;fill-opacity:1;stroke:none;font-family:URW Gothic L;-inkscape-font-specification:URW Gothic L Book"
       id="flowRoot2987">
      <path
         d="m 35.510312,30.486078 c 0,-2.999997 -0.400001,-4.840001 -1.48,-6.76 -1.959998,-3.479996 -5.760004,-5.68 -9.92,-5.68 -6.359993,0 -11.359999,5.000007 -11.359999,11.36 0,6.479994 5.080006,11.56 11.56,11.56 2.799997,0 5.440002,-1.040001 7.439999,-2.92 1.559999,-1.479998 2.600001,-3.000001 3.2,-4.8 l -3.08,0 c -1.239998,2.999997 -4.320003,5 -7.64,5 -4.479995,0 -8.28,-3.440004 -8.519999,-7.76 l 19.799999,0 m -19.719999,-2.68 c 0.799999,-4.199995 4.120004,-7.04 8.279999,-7.04 4.239996,0 7.480002,2.680005 8.480001,7.04 l -16.76,0"
         style=""
         id="path3764" />
    </g>
    <g
       transform="matrix(0,-2.0632056,2.0523804,0,-25.694937,1080.5737)"
       style="font-size:40px;font-style:normal;font-variant:normal;font-stretch:normal;text-align:center;line-height:125%;letter-spacing:0px;word-spacing:0px;text-anchor:middle;opacity:0;fill:#49aadb;fill-opacity:1;stroke:none;font-family:URW Gothic L;-inkscape-font-specification:URW Gothic L Book"
       id="flowRoot2987-8">
      <path
         inkscape:connector-curvature="0"
         d="m 35.510312,30.486078 c 0,-2.999997 -0.400001,-4.840001 -1.48,-6.76 -1.959998,-3.479996 -5.760004,-5.68 -9.92,-5.68 -6.359993,0 -11.359999,5.000007 -11.359999,11.36 0,6.479994 5.080006,11.56 11.56,11.56 2.799997,0 5.440002,-1.040001 7.439999,-2.92 1.559999,-1.479998 2.600001,-3.000001 3.2,-4.8 l -3.08,0 c -1.239998,2.999997 -4.320003,5 -7.64,5 -4.479995,0 -8.28,-3.440004 -8.519999,-7.76 l 19.799999,0 m -19.719999,-2.68 c 0.799999,-4.199995 4.120004,-7.04 8.279999,-7.04 4.239996,0 7.480002,2.680005 8.480001,7.04 l -16.76,0"
         id="path3764-6"
         style="fill:#49aadb;fill-opacity:1" />
    </g>
  </g>
</svg>
